<?xml version="1.0" encoding="UTF-8" standalone="no"?>
<svg xmlns:svg="http://www.w3.org/2000/svg" xmlns="http://www.w3.org/2000/svg" width="128" height="128" version="1.1">
  <g transform="translate(0,-924.36218)">
    <g transform="translate(35.000029,923.07607)">
      <g transform="matrix(1.68571,0,0,1.5325853,-3.7601491,-50.406044)">
        <path d="m6.8933902 91.687973c-0.7963696 0-1.2081148 0.916-1.2081148 1.4687 0 0-0.6015923 9.061697-0.6015923 11.711287 0 4.04259 0.3698309 6.61399 0.3698309 6.61399 0 0.5602 0.6435066 1.0119 1.4398762 1.0119 0.7914394 0 1.2796161-0.4517 1.2796161-1.0119 0 0 0.9812857-2.6193 0.9812857-6.65939 0-4.63549-0.3772274-10.414387-0.7002137-11.587687-0.2761399-0.9968-0.7717148-1.5469-1.5606881-1.5469zm-4.92122 0.6763c-0.7963704 0-1.20811665 0.916-1.20811665 1.4686 0 0-0.6015914 8.382997-0.6015914 11.032687 0 4.04239 0.2933994 6.61389 0.2933994 6.61389 0 0.5602 0.64104075 1.0119 1.43987625 1.0119 0.7914394 0 1.43248-0.4517 1.43248-1.0119 0 0 0.1997084-2.5412 0.1997084-6.58119 0-4.63559-0.5079013-11.067887-0.5079013-11.067887 0-0.5501-0.2564172-1.4661-1.0478547-1.4661zm-4.9828608 4.3631c-0.7988337 0-1.2081148 0.9135-1.2081148 1.4687 0 0-0.6706265 4.022297-0.6706265 6.671887 0 4.04259 0.4413311 6.45759 0.4413311 6.45759 0 0.5602 0.5646101 1.1683 1.3609797 1.1683 0.7914384 0 1.2796151-0.6081 1.2796151-1.1683 0 0 0.468453-2.3822 0.468453-6.42479 0-4.63559-0.623782-6.704687-0.623782-6.704687 0-0.5552-0.2564162-1.4687-1.0478556-1.4687zm-5.0444969-0.9035c-0.7963696 0-1.2081148 0.9161-1.2081148 1.4687 0 0-0.3994178 4.845097-0.3994178 7.494587 0 4.04269 0.1701224 6.29859 0.1701224 6.29859 0 0.5603 0.6410406 1.4056 1.4398762 1.4056 0.7914375 0 1.43248-0.7671 1.43248-1.3274 0 0 0.3525723-2.3619 0.3525723-6.40449 0-4.63559-0.5079023-7.469387-0.5079023-7.469387 0-0.5501-0.4881766-1.4662-1.279616-1.4662zm-5.3477605 3.7398c-0.670626 0-0.572005 0.550097-0.572005 0.550097l0 10.04848c0 0-0.09862 0.8453 0.572005 0.8453 0.865405 0 1.765329-2.0996 1.765329-5.92509 0-3.14169-1.074977-5.518787-1.765329-5.518787zm46.142609-2.4628c-0.712542 0-1.397962 0.1064-2.051331 0.2927-1.028131-5.7182-6.918308-10.0662-12.976144-10.0662-2.778665 0-5.165309 1.7791-7.226502 3.3209l0 20.591477c0 0 0 1.2214 1.232771 1.2214l21.021206 0c4.080474 0 7.39663-3.9115 7.39663-7.96159 0-4.05519-3.318628-7.398687-7.39663-7.398687z" style="fill-opacity:1;fill:#f50"/>
        <path d="m40.546194 38.482613-0.459749 0-4.63794 0-1.291278 0 0.229324 65.573457c2.343769 0.79713 5.699247 1.04819 5.699247 1.04819l0-48.363211c8.670374 1.983809 9.950093 17.261107 8.893185 21.394583-0.39939 1.574261 0.30757 2.757504 1.650216 0C60.215218 58.417069 39.432133 51.495512 40.546194 38.482613z" style="fill-opacity:1;fill:#f50"/>
      </g>
      <g transform="matrix(2.0233908,0,0,1.6277379,-48.372329,-15.596713)" fill="#999">
        <path d="M47.381 47.258H10.139v7.749h37.243v-7.749z" fill="#999"/>
      </g>
      <g transform="matrix(2.0233908,0,0,1.6277379,-48.372329,-14.351542)" fill="#999">
        <path d="M47.381 32.897H10.139v7.748h37.243v-7.748z" fill="#999"/>
      </g>
      <g transform="matrix(2.0233908,0,0,1.6277379,-48.372329,-13.107989)" fill="#999">
        <path d="M47.381 18.536H10.139v7.749h37.243v-7.749z" fill="#999"/>
      </g>
      <g transform="matrix(2.055185,0,0,1.6277379,-48.69469,-2.3937029)" fill="#999"/>
    </g>
  </g>
</svg>